HIERARCHY
ROOT Hips
{
	OFFSET -3.958830 18.904000 13.208200
	CHANNELS 6 Xposition Yposition Zposition Zrotation Yrotation Xrotation 
	JOINT LHipJoint
	{
		OFFSET 0.000000 0.000000 0.000000
		CHANNELS 3 Zrotation Yrotation Xrotation
		JOINT LeftUpLeg
		{
			OFFSET 1.800000 -1.400000 0.085000
			CHANNELS 3 Zrotation Yrotation Xrotation
			JOINT LeftLeg
			{
				OFFSET 2.215000 -6.000000 0.000000
				CHANNELS 3 Zrotation Yrotation Xrotation
				JOINT LeftFoot
				{
					OFFSET 2.500000 -6.900000 0.000000
					CHANNELS 3 Zrotation Yrotation Xrotation
					JOINT LeftToeBase
					{
						OFFSET 0.200000 -0.500000 1.950000
						CHANNELS 3 Zrotation Yrotation Xrotation
						End Site
						{
							OFFSET 0.000000 0.000000 0.000000
						}
					}
				}
			}
		}
	}
	JOINT RHipJoint
	{
		OFFSET 0.000000 0.000000 0.000000
		CHANNELS 3 Zrotation Yrotation Xrotation
		JOINT RightUpLeg
		{
			OFFSET -1.800000 -1.400000 0.085000
			CHANNELS 3 Zrotation Yrotation Xrotation
			JOINT RightLeg
			{
				OFFSET -2.215000 -6.000000 0.000000
				CHANNELS 3 Zrotation Yrotation Xrotation
				JOINT RightFoot
				{
					OFFSET -2.500000 -6.900000 0.000000
					CHANNELS 3 Zrotation Yrotation Xrotation
					JOINT RightToeBase
					{
						OFFSET -0.200000 -0.500000 1.950000
						CHANNELS 3 Zrotation Yrotation Xrotation
						End Site
						{
							OFFSET 0.000000 0.000000 0.000000
						}
					}
				}
			}
		}
	}
	JOINT LowerBack
	{
		OFFSET 0.000000 0.000000 0.000000
		CHANNELS 3 Zrotation Yrotation Xrotation
		JOINT Spine
		{
			OFFSET -0.087000 1.940000 -0.288900
			CHANNELS 3 Zrotation Yrotation Xrotation
			JOINT Spine1
			{
				OFFSET 0.000000 1.950000 0.060000
				CHANNELS 3 Zrotation Yrotation Xrotation
				JOINT Neck
				{
					OFFSET 0.000000 0.000000 0.000000
					CHANNELS 3 Zrotation Yrotation Xrotation
					JOINT Neck1
					{
						OFFSET 0.000000 1.600000 0.340000
						CHANNELS 3 Zrotation Yrotation Xrotation
						JOINT Head
						{
							OFFSET 0.000000 1.667000 -0.240000
							CHANNELS 3 Zrotation Yrotation Xrotation
							End Site
							{
								OFFSET 0.000000 0.000000 0.000000
							}
						}
					}
				}
				JOINT LeftShoulder
				{
					OFFSET 0.000000 0.000000 0.000000
					CHANNELS 3 Zrotation Yrotation Xrotation
					JOINT LeftArm
					{
						OFFSET 2.700000 1.550000 -0.730000
						CHANNELS 3 Zrotation Yrotation Xrotation
						JOINT LeftForeArm
						{
							OFFSET 5.450000 0.000000 0.000000
							CHANNELS 3 Zrotation Yrotation Xrotation
							JOINT LeftHand
							{
								OFFSET 3.450000 0.000000 0.000000
								CHANNELS 3 Zrotation Yrotation Xrotation
								JOINT LeftHandIndex1
								{
									OFFSET 0.750000 0.000000 0.000000
									CHANNELS 3 Zrotation Yrotation Xrotation
									End Site
									{
										OFFSET 0.000000 0.000000 0.000000
									}
								}
							}
						}
					}
				}
				JOINT RightShoulder
				{
					OFFSET 0.000000 0.000000 0.000000
					CHANNELS 3 Zrotation Yrotation Xrotation
					JOINT RightArm
					{
						OFFSET -2.700000 1.550000 -0.730000
						CHANNELS 3 Zrotation Yrotation Xrotation
						JOINT RightForeArm
						{
							OFFSET -5.450000 0.000000 0.000000
							CHANNELS 3 Zrotation Yrotation Xrotation
							JOINT RightHand
							{
								OFFSET -3.450000 0.000000 0.000000
								CHANNELS 3 Zrotation Yrotation Xrotation
								JOINT RightHandIndex1
								{
									OFFSET -0.750000 0.000000 0.000000
									CHANNELS 3 Zrotation Yrotation Xrotation
									End Site
									{
										OFFSET 0.000000 0.000000 0.000000
									}
								}
							}
						}
					}
				}
			}
		}
	}
}
MOTION
Frames: 10
Frame Time: 0.016667
-0.075740 16.908420 -1.638490 -3.621029 -31.980087 5.217676 -14.898701 14.004753 2.756855 9.145988 -2.187777 -16.063395 -4.214096 7.243815 24.950958 -0.011061 5.191661 2.903734 0.137470 -0.357140 0.203230 18.358694 -10.889233 2.798558 -6.528277 2.031882 -20.163175 9.430780 -6.792004 18.839529 -0.120958 -3.474344 3.389803 -0.346880 0.374280 0.399040 -3.816435 -2.610566 -6.998764 12.703153 -3.443406 4.877930 -6.829304 -2.481648 9.166781 3.723560 -4.256573 -15.099832 -12.512290 9.942093 43.447176 -4.267240 9.658800 7.131020 -1.013768 -9.829637 8.406011 -61.060473 -4.662468 -7.478546 -33.827692 -36.589162 5.976234 -3.677402 3.289053 0.458430 0.276450 -0.050040 0.208540 -6.198629 12.377642 9.010942 68.633764 3.429384 -12.314804 35.263515 29.760255 4.421794 2.076818 -1.784223 -0.083520 -0.031230 -0.012100 -0.152150 
-0.076140 16.907930 -1.637880 -3.620333 -31.967705 5.224142 -14.897760 14.006818 2.758138 9.139506 -2.190150 -16.071251 -4.199635 7.237940 24.954345 -0.010496 5.188829 2.904299 0.137020 -0.358370 0.203390 18.358763 -10.889499 2.800056 -6.529850 2.034943 -20.176020 9.431840 -6.795026 18.854632 -0.120858 -3.474323 3.389838 -0.348200 0.372830 0.399060 -3.817012 -2.613274 -7.002867 12.726710 -3.445473 4.909691 -6.867743 -2.471252 9.142979 3.743927 -4.257098 -15.127824 -12.514200 9.925768 43.414715 -4.274820 9.652850 7.143070 -1.106199 -9.877166 8.420190 -60.883293 -4.555607 -7.530949 -34.024342 -36.689929 6.057699 -3.676073 3.290177 0.459090 0.275480 -0.049630 0.208100 -6.146389 12.433903 9.050475 68.519793 3.315416 -12.375157 35.486776 29.860258 4.481247 2.077006 -1.785456 -0.083080 -0.032770 -0.012360 -0.152550 
-0.076920 16.906890 -1.636750 -3.626727 -31.940748 5.237983 -14.895904 14.011537 2.760662 9.136366 -2.194620 -16.085912 -4.172905 7.228732 24.965575 -0.009404 5.184663 2.905225 0.136360 -0.360300 0.203970 18.358918 -10.889402 2.802925 -6.527392 2.041228 -20.199541 9.434126 -6.801633 18.888762 -0.121012 -3.473653 3.390597 -0.350520 0.370290 0.398200 -3.818246 -2.620723 -7.011036 12.781100 -3.457333 4.978852 -6.937563 -2.457852 9.092845 3.781766 -4.268329 -15.182875 -12.541688 9.904371 43.347998 -4.282190 9.635470 7.138470 -1.290399 -9.965909 8.446952 -60.548497 -4.345065 -7.634211 -34.389491 -36.887006 6.211709 -3.673192 3.290987 0.460710 0.273140 -0.048690 0.207490 -6.035920 12.545651 9.127657 68.276660 3.088894 -12.492099 35.923763 30.062744 4.601488 2.077454 -1.786524 -0.082650 -0.034160 -0.012890 -0.153280 
-0.078410 16.905510 -1.635240 -3.632453 -31.889385 5.250167 -14.893771 14.019023 2.764407 9.135131 -2.203521 -16.114505 -4.128736 7.217499 25.004104 -0.007134 5.181624 2.906374 0.134710 -0.363270 0.203530 18.358665 -10.888750 2.806505 -6.524638 2.047501 -20.220766 9.446314 -6.815352 18.941795 -0.121154 -3.475170 3.391624 -0.353840 0.368230 0.396400 -3.818284 -2.634091 -7.022848 12.845431 -3.478826 5.083786 -7.019324 -2.445514 9.013218 3.829942 -4.292356 -15.254692 -12.597048 9.878139 43.239812 -4.286970 9.603100 7.156600 -1.571621 -10.080380 8.478355 -60.081854 -4.044861 -7.777765 -34.862180 -37.140688 6.413572 -3.669909 3.291054 0.462220 0.270660 -0.048330 0.207190 -5.846332 12.698065 9.234419 67.920827 2.752076 -12.660754 36.517871 30.344018 4.767467 2.078363 -1.787197 -0.082520 -0.035170 -0.013480 -0.153700 
-0.080660 16.903900 -1.633390 -3.646700 -31.829112 5.262357 -14.891402 14.028916 2.769127 9.148737 -2.214183 -16.149629 -4.080386 7.208640 25.062887 -0.003730 5.181422 2.906681 0.133180 -0.365940 0.202550 18.358190 -10.887127 2.810567 -6.510332 2.055407 -20.235194 9.456218 -6.828497 19.002753 -0.121694 -3.476451 3.392327 -0.356920 0.366220 0.394510 -3.817746 -2.653237 -7.037267 12.925959 -3.510028 5.225418 -7.097246 -2.436744 8.902582 3.878087 -4.341930 -15.333364 -12.704873 9.864719 43.080332 -4.262360 9.542730 7.162320 -1.937086 -10.203478 8.506458 -59.508024 -3.675750 -7.940780 -35.422304 -37.386184 6.641869 -3.666101 3.291062 0.463790 0.267480 -0.047640 0.207370 -5.568415 12.880544 9.360185 67.430110 2.322759 -12.855921 37.272144 30.671253 4.977520 2.080601 -1.787614 -0.082300 -0.036050 -0.014440 -0.153460 
-0.083450 16.901880 -1.631060 -3.663630 -31.773774 5.278198 -14.888628 14.039462 2.774588 9.170338 -2.224342 -16.183586 -4.040163 7.207061 25.133472 -0.000059 5.185657 2.906029 0.128540 -0.371710 0.198700 18.357793 -10.885315 2.815277 -6.495822 2.067618 -20.260269 9.468098 -6.846429 19.088063 -0.120442 -3.480588 3.392889 -0.361080 0.366490 0.391240 -3.817703 -2.673488 -7.053561 13.024366 -3.539837 5.393560 -7.191753 -2.418540 8.762344 3.933146 -4.401776 -15.410861 -12.818081 9.851631 42.843869 -4.224940 9.475820 7.214310 -2.406365 -10.329598 8.526151 -58.820650 -3.226496 -8.127023 -36.075180 -37.652408 6.909285 -3.664139 3.290298 0.464280 0.265520 -0.049420 0.207170 -5.198864 13.077715 9.502393 66.830366 1.796761 -13.076335 38.184829 31.039639 5.232002 2.083308 -1.787205 -0.083860 -0.036080 -0.013620 -0.152930 
-0.087150 16.899320 -1.628260 -3.680623 -31.713654 5.294634 -14.885917 14.051178 2.779735 9.203226 -2.233656 -16.212840 -3.994802 7.206534 25.210891 0.005423 5.192608 2.905437 0.122470 -0.379520 0.193660 18.357056 -10.883961 2.820083 -6.481387 2.081589 -20.286918 9.477216 -6.867661 19.194849 -0.118547 -3.488225 3.392065 -0.366210 0.368380 0.389020 -3.816408 -2.694501 -7.070724 13.118753 -3.569122 5.580337 -7.288204 -2.397265 8.598252 3.990916 -4.462906 -15.475534 -12.912364 9.823554 42.526161 -4.197540 9.411260 7.321570 -2.977528 -10.444801 8.531451 -58.023104 -2.711552 -8.322294 -36.819906 -37.927258 7.216741 -3.664306 3.291296 0.462740 0.265140 -0.052670 0.207220 -4.731774 13.266966 9.651258 66.135430 1.185597 -13.308386 39.231343 31.436046 5.525993 2.087055 -1.788157 -0.085210 -0.037340 -0.012440 -0.151800 
-0.091370 16.895980 -1.625120 -3.690902 -31.646170 5.310724 -14.883502 14.062604 2.785539 9.237980 -2.246093 -16.253758 -3.953971 7.210811 25.307059 0.011532 5.203400 2.904463 0.115400 -0.387940 0.187010 18.356109 -10.881845 2.824653 -6.480614 2.097758 -20.325771 9.500300 -6.900357 19.334964 -0.116907 -3.501278 3.389525 -0.371730 0.372550 0.386860 -3.814500 -2.716999 -7.088255 13.211500 -3.599430 5.784413 -7.388659 -2.373458 8.410245 4.045192 -4.534444 -15.522724 -13.012154 9.791948 42.134255 -4.163500 9.335220 7.421620 -3.630848 -10.539594 8.514052 -57.139008 -2.160794 -8.507969 -37.603929 -38.159359 7.534466 -3.666474 3.291889 0.460210 0.265940 -0.057210 0.207650 -4.174337 13.441834 9.803007 65.364789 0.497755 -13.548133 40.387505 31.846568 5.852974 2.090947 -1.788677 -0.086810 -0.037630 -0.010320 -0.149850 
-0.096100 16.892010 -1.621700 -3.704894 -31.581411 5.337624 -14.881812 14.072457 2.791532 9.285946 -2.261719 -16.315308 -3.921110 7.224733 25.432011 0.018510 5.222829 2.902104 0.105410 -0.399610 0.176010 18.355113 -10.878560 2.828817 -6.470705 2.120825 -20.383378 9.517426 -6.937304 19.509952 -0.113007 -3.519629 3.386764 -0.377670 0.381760 0.384980 -3.811990 -2.738898 -7.104379 13.301923 -3.623988 5.991390 -7.460923 -2.346306 8.206379 4.082967 -4.622806 -15.545103 -13.113748 9.757219 41.614070 -4.096810 9.232300 7.599220 -4.336217 -10.600092 8.473456 -56.233726 -1.599633 -8.675770 -38.436560 -38.365068 7.868378 -3.672556 3.293752 0.454840 0.270300 -0.065580 0.209420 -3.528460 13.589990 9.950764 64.516424 -0.255768 -13.784874 41.610979 32.274535 6.207742 2.094282 -1.789842 -0.090090 -0.037030 -0.006400 -0.146620 
-0.101070 16.887530 -1.617910 -3.717257 -31.513812 5.366855 -14.880348 14.080348 2.797190 9.336945 -2.278960 -16.384436 -3.895820 7.242921 25.563733 0.025627 5.246130 2.899748 0.093120 -0.412930 0.162000 18.354457 -10.875073 2.832304 -6.467316 2.145488 -20.453996 9.535599 -6.979069 19.704816 -0.107652 -3.542663 3.382784 -0.383710 0.395000 0.383140 -3.810434 -2.758310 -7.118327 13.395381 -3.649819 6.197074 -7.533081 -2.320394 7.993345 4.108364 -4.717272 -15.539712 -13.200092 9.713994 41.004937 -4.012880 9.112920 7.810640 -5.079409 -10.628068 8.409993 -55.312313 -1.043079 -8.820691 -39.285380 -38.536262 8.206588 -3.681901 3.295848 0.447160 0.277400 -0.076660 0.211550 -2.821000 13.702591 10.085274 63.648119 -1.034174 -14.004808 42.828620 32.680964 6.564106 2.097729 -1.791028 -0.094540 -0.035390 -0.001020 -0.142040 
